<svg xmlns="http://www.w3.org/2000/svg" viewBox="0 0 512 512" id="pipe">
  <g>
    <polygon fill="#00efd1" points="500.13 200.25 500.13 411.92 438.76 411.92 438.76 385.24 438.76 226.93 438.76 200.25 500.13 200.25"></polygon>
    <polygon fill="#00acea" points="332 226.93 438.54 226.93 438.76 226.93 438.76 385.24 438.54 385.24 73.46 385.24 73.24 385.24 73.24 226.93 73.46 226.93 180 226.93 332 226.93"></polygon>
    <rect width="36.33" height="40.67" x="336" y="100.08" fill="#f4b844"></rect>
    <rect width="40" height="40.67" x="296" y="100.08" fill="#fedb41"></rect>
    <polygon fill="#00efd1" points="332 196.42 332 226.93 180 226.93 180 196.42 238.33 196.42 273.67 196.42 332 196.42"></polygon>
    <polygon fill="#f4b844" points="296 100.08 296 140.75 273.67 140.75 256 140.75 256 100.08 296 100.08"></polygon>
    <polygon fill="#00acea" points="273.67 196.25 273.67 196.42 238.33 196.42 238.33 196.25 238.33 141.08 238.33 140.75 256 140.75 273.67 140.75 273.67 141.08 273.67 196.25"></polygon>
    <polygon fill="#fedb41" points="256 100.08 256 140.75 238.33 140.75 216 140.75 216 100.08 256 100.08"></polygon>
    <rect width="40" height="40.67" x="176" y="100.08" fill="#f4b844"></rect>
    <rect width="36.33" height="40.67" x="139.67" y="100.08" fill="#fedb41"></rect>
    <polygon fill="#00efd1" points="73.24 385.24 73.24 411.92 11.87 411.92 11.87 200.25 73.24 200.25 73.24 226.93 73.24 385.24"></polygon>
  </g>
</svg>
