<svg xmlns="http://www.w3.org/2000/svg" viewBox="0 0 512 512" id="natural-gas">
  <path fill="#dedede" d="M0 294.85h512v143H0z"></path>
  <path fill="#cecece" d="M130.5 294.85h251v143h-251z"></path>
  <rect width="211" height="211" x="150.5" y="260.852" fill="#63ea86" rx="30"></rect>
  <path fill="#4fe777" d="M331.5 260.852h-45a30 30 0 0 1 30 30v151a30 30 0 0 1-30 30h45a30 30 0 0 0 30-30v-151a30 30 0 0 0-30-30Z"></path>
  <rect width="61" height="211" x="406.5" y="260.852" fill="#676e87" rx="30"></rect>
  <path fill="#595f74" d="M437.5 260.852h-1a29.858 29.858 0 0 0-14.5 3.736 29.988 29.988 0 0 1 15.5 26.264v151a29.988 29.988 0 0 1-15.5 26.264 29.858 29.858 0 0 0 14.5 3.736h1a30 30 0 0 0 30-30v-151a30 30 0 0 0-30-30Z"></path>
  <rect width="61" height="211" x="44.283" y="260.852" fill="#676e87" rx="30"></rect>
  <path fill="#595f74" d="M75.283 260.852h-1a29.858 29.858 0 0 0-14.5 3.736 29.988 29.988 0 0 1 15.5 26.264v151a29.988 29.988 0 0 1-15.5 26.264 29.858 29.858 0 0 0 14.5 3.736h1a30 30 0 0 0 30-30v-151a30 30 0 0 0-30-30Z"></path>
  <circle cx="256" cy="366.352" r="66.226" fill="#fff"></circle>
  <path fill="#eee" d="M256 300.126a66.365 66.365 0 0 0-15 1.727 66.218 66.218 0 0 1 0 128.997 66.223 66.223 0 1 0 15-130.724Z"></path>
  <path fill="#676e87" d="M276.392 373.484a20.397 20.397 0 0 1-40.784 0c0-11.03 20.392-34.234 20.392-34.234s20.392 23.205 20.392 34.234Z"></path>
  <path fill="#595f74" d="M213.5 230.852h85a9 9 0 0 1 9 9v21h-103v-21a9 9 0 0 1 9-9Z"></path>
  <path fill="#4a4f60" d="M298.5 230.852h-45a9 9 0 0 1 9 9v21h45v-21a9 9 0 0 0-9-9ZM223.614 188.2h64.772v42.652h-64.772z"></path>
  <path fill="#3b3f4d" d="M258.386 188.2h30v42.652h-30z"></path>
  <circle cx="256" cy="104.5" r="97" fill="#66c1ff"></circle>
  <path fill="#4eb7ff" d="M256 7.5a97.723 97.723 0 0 0-15 1.155 97.013 97.013 0 0 1 0 191.69A97.005 97.005 0 1 0 256 7.5Z"></path>
  <path fill="#fff" d="M256 63.17a7.5 7.5 0 0 1-7.5-7.5v-15a7.5 7.5 0 0 1 15 0v15a7.5 7.5 0 0 1-7.5 7.5zm-54.272 41.32a7.541 7.541 0 0 1-1.286-.111l-15.084-2.605a7.5 7.5 0 0 1 2.553-14.78l15.084 2.604a7.5 7.5 0 0 1-1.267 14.891zm108.544 0a7.5 7.5 0 0 1-1.267-14.892l15.084-2.605a7.5 7.5 0 0 1 2.553 14.781l-15.084 2.605a7.533 7.533 0 0 1-1.286.11zm-89.698-26.547a7.483 7.483 0 0 1-5.699-2.62l-9.846-11.49a7.5 7.5 0 1 1 11.39-9.76l9.847 11.49a7.5 7.5 0 0 1-5.692 12.38zm70.852 0a7.5 7.5 0 0 1-5.692-12.38l9.846-11.49a7.5 7.5 0 1 1 11.39 9.76l-9.845 11.49a7.485 7.485 0 0 1-5.7 2.62z"></path>
  <circle cx="256" cy="146.295" r="22.035" fill="#4a4f60"></circle>
  <path fill="#4a4f60" d="M256 146.295a7.5 7.5 0 0 1-7.5-7.5v-53.47a7.5 7.5 0 0 1 15 0v53.47a7.5 7.5 0 0 1-7.5 7.5Z"></path>
</svg>
